inDegrees=no
num_controls=7
num_derivatives=13
num_iterations=130
num_multipliers=7
num_parameters=0
num_slacks=7
num_states=26
objective=0.477040
objective_accelerations=0.044370
objective_balance=0.003634
objective_effort=0.040523
objective_height=0.382851
objective_ligament=0.005663
solver_duration=1820.490718
status=Solve_Succeeded
success=true
DataType=double
version=3
OpenSimVersion=4.5
endheader
time	/jointset/ground_pelvis/pelvis_tilt/value	/jointset/ground_pelvis/pelvis_tx/value	/jointset/ground_pelvis/pelvis_ty/value	/jointset/hip_l/hip_flexion_l/value	/jointset/hip_l/hip_adduction_l/value	/jointset/hip_l/hip_rotation_l/value	/jointset/back/lumbar_extension/value	/jointset/patellofemoral_l/patellar_flexion_l/value	/jointset/knee_l/knee_flexion_l/value	/jointset/knee_l/knee_adduction_l/value	/jointset/knee_l/knee_rotation_l/value	/jointset/ankle_l/ankle_angle_l/value	/jointset/subtalar_l/subtalar_angle_l/value	/jointset/ground_pelvis/pelvis_tilt/speed	/jointset/ground_pelvis/pelvis_tx/speed	/jointset/ground_pelvis/pelvis_ty/speed	/jointset/hip_l/hip_flexion_l/speed	/jointset/hip_l/hip_adduction_l/speed	/jointset/hip_l/hip_rotation_l/speed	/jointset/back/lumbar_extension/speed	/jointset/patellofemoral_l/patellar_flexion_l/speed	/jointset/knee_l/knee_flexion_l/speed	/jointset/knee_l/knee_adduction_l/speed	/jointset/knee_l/knee_rotation_l/speed	/jointset/ankle_l/ankle_angle_l/speed	/jointset/subtalar_l/subtalar_angle_l/speed	/forceset/tau_hip_flexion_l	/forceset/tau_hip_adduction_l	/forceset/tau_hip_rotation_l	/forceset/tau_knee_flexion_l	/forceset/tau_ankle_angle_l	/forceset/tau_subtalar_angle_l	/forceset/tau_lumbar_extension	lambda_cid13_p0	lambda_cid13_p1	lambda_cid13_p2	lambda_cid13_p3	lambda_cid13_p4	lambda_cid13_p5	lambda_cid14_p0	/jointset/ground_pelvis/pelvis_tilt/accel	/jointset/ground_pelvis/pelvis_tx/accel	/jointset/ground_pelvis/pelvis_ty/accel	/jointset/hip_l/hip_flexion_l/accel	/jointset/hip_l/hip_adduction_l/accel	/jointset/hip_l/hip_rotation_l/accel	/jointset/back/lumbar_extension/accel	/jointset/patellofemoral_l/patellar_flexion_l/accel	/jointset/knee_l/knee_flexion_l/accel	/jointset/knee_l/knee_adduction_l/accel	/jointset/knee_l/knee_rotation_l/accel	/jointset/ankle_l/ankle_angle_l/accel	/jointset/subtalar_l/subtalar_angle_l/accel	gamma_cid13_p0	gamma_cid13_p1	gamma_cid13_p2	gamma_cid13_p3	gamma_cid13_p4	gamma_cid13_p5	gamma_cid14_p0
0	-0.03681456984369858	0.05667386539543861	0.9203417305423044	0.3085816938045678	-0.2956377241478786	-0.3015489159602674	-0.3879492264334186	0.2499269421184904	0.2499269421184919	-0.1745329176304798	-0.1744754464149063	-0.0008036623358878681	0.0004397045489131693	0	0	0	0	0	0	0	0	0	0	0	0	0	0.07182413573918209	-0.0446868914108552	-0.01982614198481704	-0.242453610692919	0.1892895859115516	-0.01688171296005606	0.00263379241822428	17.28639584303518	1.690828206887363	2.262147297047578	10.25449330569081	-621.6900782995991	-71.44379550079022	-23.19497294964836	-1.002993297076087	-2.043626446049162	-0.9275131087914754	9.329133725206715	-0.8387095777281596	3.3319705655929	-7.293629264845594	9.44181605219698	9.441816052196831	1.294685852908399	-0.08589798369145314	1.645759785017567	-0.3408973348817227	2.732308018635051e-09	1.529055523164028e-07	5.552477405746482e-08	-1.142404382043951e-08	1.221664802062256e-07	9.934212255977846e-09	4.759460258797834e-09
0.01	-0.03686097633239726	0.05657356549730801	0.920296400123653	0.3090360811404159	-0.295679861510759	-0.3013814653368433	-0.3883123867733086	0.2503898374053527	0.2503898374053596	-0.1744719033370607	-0.174476170655238	-0.0007228189248519415	0.000421940255817173	-0.009237673160484182	-0.01989021741826742	-0.009028285146274762	0.09037311335421455	-0.008390013741586625	0.03334531497080952	-0.07212437523888098	0.09217155816285554	0.09217155816285551	0.01213331665877775	-0.000135288047601589	0.01620283742663755	-0.003501041380319098	0.06776307392815673	-0.0536839982204903	-0.01949550024027163	-0.2413161278567822	0.1871531834564642	-0.006602323375546041	0.007162570635155022	16.88481243444531	-2.607776305584698	2.838469847692394	8.44053309237869	-624.5311389897673	-80.13624289614044	-23.20032635658977	-0.8776188959800817	-1.936257343227487	-0.8847919966471035	8.815741098175893	-0.8335614355939232	3.314089844652436	-7.095687742618736	9.043699864851195	9.043699864851293	1.162254997647943	0.02409416354384076	1.612673121818732	-0.3469658083674278	-3.118285792962e-08	1.464411275860282e-07	1.40431719408809e-07	1.951176000132227e-08	-2.916987143167869e-09	-4.734854313961694e-08	-5.848950411654023e-09
0.02	-0.03699845246678808	0.05627945583429245	0.9201619256977186	0.3103790678013366	-0.2958047818436993	-0.3008849059873459	-0.3893815600834288	0.251762223107156	0.2517622231071566	-0.174291635791992	-0.1744779601002666	-0.0004789216594832333	0.0003707138951659061	-0.01821392913879831	-0.03876195297699149	-0.01782880145660541	0.1777198650143104	-0.01655659401197392	0.0658217452147194	-0.1412025940461437	0.1818980829865655	0.1818980829865666	0.02385065032897475	-0.000213040941669169	0.03261077086655129	-0.006692413511054961	0.06370201211713498	-0.06268110503012521	-0.01916485849579231	-0.2401786450206315	0.1850167810013793	0.003677066208965937	0.01169134885208612	16.55622214613502	-6.917757494637485	3.415002478859734	6.512757078805879	-626.281427486211	-88.73771702574872	-23.21606128702493	-0.9507098606421237	-1.83993007414045	-0.8819593416026513	8.723861386382957	-0.7940228834882973	3.158193620212977	-6.684397978521982	8.952809384367864	8.952809384367939	1.211489255192236	-0.0743909529846441	1.686778987672851	-0.2789634849650651	-6.509802387787504e-08	1.399767028556536e-07	2.253386647601533e-07	5.044756382308406e-08	-1.280004544925613e-07	-1.046312985352117e-07	-1.645736108210588e-08
0.03	-0.03722440497554648	0.05580119588655035	0.9199403338223037	0.3125811295623933	-0.296009948250081	-0.3000687415237601	-0.3911262121026565	0.254019537619852	0.2540195376198497	-0.1739959535395354	-0.1744808319949124	-7.075257459837276e-05	0.0002891459771639254	-0.0269127448305954	-0.05677276837077595	-0.02647270828223946	0.2622327533905661	-0.02441461976764598	0.09724739446151108	-0.2072380013652933	0.2691351968015563	0.2691351968015576	0.03523061293099278	-0.0003505362188535094	0.04897457305339677	-0.00957326108144088	0.05656507081605092	-0.05609101329518373	-0.01826400212060082	-0.2338730399589133	0.1791027082149414	0.002000240640011776	0.01793784503871303	14.53875410402036	-5.919332061168767	3.350705089479048	6.917014274281843	-627.8547900296918	-85.73803261383631	-23.24150746600867	-0.8199002163641403	-1.764056827280704	-0.8531026569004715	8.246032302091246	-0.7724329160706611	3.110159584968488	-6.489640843570115	8.544722301781482	8.544722301781492	1.093017770860925	0.01822612863010519	1.60390986138425	-0.2855069294452957	-8.691541469952449e-08	1.191950828136798e-07	2.83683931966071e-07	7.007196831426648e-08	-2.192959989401352e-07	-1.451227850187186e-07	-2.481148507540141e-08
0.04	-0.03753543219980419	0.05514634787381388	0.919632803617861	0.3156145261549824	-0.2962918430129122	-0.2989432387660952	-0.393516523942067	0.2571363352550369	0.2571363352550367	-0.1735881180594288	-0.1744847478535924	0.000499600337593771	0.0001801972761841041	-0.03522887223902402	-0.07407956597586604	-0.03501646726213948	0.3439868313205975	-0.03190226530187783	0.1276894040305519	-0.2703345580827959	0.3537947074852186	0.3537947074852208	0.04628129585918387	-0.0004218337474191549	0.06504753632799699	-0.01216857010662433	0.04942812951496266	-0.04950092156024272	-0.01736314574537277	-0.2275674348972035	0.1731886354285014	0.0003234150710559249	0.02418434122533815	12.58906489665987	-4.929564010093226	3.284121245793884	7.206346037356867	-628.4279129951464	-82.65054125920935	-23.27579102012594	-0.8741722039684765	-1.699126516401535	-0.8619297724558436	8.172099297138088	-0.7199468392002548	2.961465684662805	-6.09662785819264	8.437288758102151	8.437288758102392	1.145633320426838	-0.06115140326089619	1.628611205223845	-0.2218557759245603	-1.084833668587697e-07	9.8118262868374e-08	3.414815357050727e-07	8.946314807698335e-08	-3.098948851835479e-07	-1.852680597720793e-07	-3.311912893102362e-08
